# xmcd
#
# Track frame offsets: 
#        150
#        23472
#        51560
#        75606
#        95819
#        112961
#        137180
#        157553
#        182330
#        212809
#
# Disc length: 3093 seconds
#
# Revision: 0
# Processed by: cddbd v1.5.2PL0 Copyright (c) Steve Scherf et al.
# Submitted via: ExactAudioCopy v1.0b3
#
DISCID=780c130a
DTITLE=Phuong Dung - Thu Nguoi Chien Binh
DYEAR=1996
DGENRE=
TTITLE0=Thu nguoi chien binh
TTITLE1=Doi thong hai mo
TTITLE2=Do ai
TTITLE3=Suong lanh chieu dong
TTITLE4=Mua Xuan tren cao
TTITLE5=Tinh tham duyen que
TTITLE6=Sai Gon cua toi
TTITLE7=Noi long hai au
TTITLE8=Ngo hon qua dem
TTITLE9=Lang toi
EXTD=
EXTT0=
EXTT1=
EXTT2=
EXTT3=
EXTT4=
EXTT5=
EXTT6=
EXTT7=
EXTT8=
EXTT9=
PLAYORDER=
